<svg xmlns="http://www.w3.org/2000/svg" viewBox="0 0 64 64"><linearGradient id="zNE1YRA6W1psDEybdfye_a" x1="11" x2="11" y1="14.517" y2="51.09" gradientUnits="userSpaceOnUse" spreadMethod="reflect"><stop offset="0" stop-color="#6dc7ff"/><stop offset="1" stop-color="#e6abff"/></linearGradient><path fill="url(#zNE1YRA6W1psDEybdfye_a)" d="M13,50H9c-1.105,0-2-0.895-2-2V31c0-1.105,0.895-2,2-2h4c1.105,0,2,0.895,2,2v17 C15,49.105,14.105,50,13,50z"/><linearGradient id="zNE1YRA6W1psDEybdfye_b" x1="32" x2="32" y1="-194" y2="-244.505" gradientTransform="matrix(1 0 0 -1 0 -186)" gradientUnits="userSpaceOnUse" spreadMethod="reflect"><stop offset="0" stop-color="#1a6dff"/><stop offset="1" stop-color="#c822ff"/></linearGradient><path fill="url(#zNE1YRA6W1psDEybdfye_b)" d="M56.427,37.815c-0.937-0.693-2.188-0.895-3.435-0.55l-15.289,4.227 C37.891,41.028,38,40.523,38,39.991C38,37.79,36.206,36,34,36h-9.377c-0.666-1-2.362-4-4.623-4h-4v-1c0-1.654-1.346-3-3-3H9 c-1.654,0-3,1.346-3,3v17c0,1.654,1.346,3,3,3h4c1.654,0,3-1.345,3-3v-0.752l12.139,8.202c1.524,1.032,3.298,1.55,5.075,1.55 c1.642,0,3.287-0.442,4.742-1.331l18.173-11.101C57.283,43.865,58,42.587,58,41.235v-0.313C58,39.691,57.427,38.559,56.427,37.815z M14,48c0,0.552-0.449,1-1,1h-1v-4h-2v4H9c-0.551,0-1-0.448-1-1V31c0-0.552,0.449-1,1-1h4c0.551,0,1,0.449,1,1V48z M56,41.235 c0,0.66-0.35,1.283-0.913,1.627l-18.173,11.1c-2.365,1.443-5.369,1.378-7.654-0.169L16,44.835V34h4c1.059,0,2.469,2.034,3.088,3.409 L23.354,38H34c1.103,0,2,0.893,2,1.99c0,1.108-0.897,2.01-2,2.01H24v2h10h2l17.524-4.807c0.641-0.178,1.28-0.093,1.71,0.229 C55.721,39.783,56,40.33,56,40.922V41.235z"/><linearGradient id="zNE1YRA6W1psDEybdfye_c" x1="39" x2="39" y1="7.367" y2="57.719" gradientUnits="userSpaceOnUse" spreadMethod="reflect"><stop offset="0" stop-color="#1a6dff"/><stop offset="1" stop-color="#c822ff"/></linearGradient><path fill="url(#zNE1YRA6W1psDEybdfye_c)" d="M39.003,33c-3.33,0-6.66-1.268-9.195-3.803C27.352,26.741,26,23.475,26,20 s1.352-6.742,3.808-9.197c5.069-5.07,13.32-5.07,18.389,0c5.07,5.071,5.07,13.323,0,18.394C45.663,31.732,42.333,33,39.003,33z M39.002,9c-2.817,0-5.635,1.073-7.78,3.218C29.144,14.297,28,17.06,28,20s1.144,5.704,3.222,7.782c4.29,4.291,11.271,4.291,15.56,0 c4.29-4.292,4.29-11.273,0-15.564C44.638,10.073,41.82,9,39.002,9z"/><linearGradient id="zNE1YRA6W1psDEybdfye_d" x1="39" x2="39" y1="13" y2="27" gradientUnits="userSpaceOnUse" spreadMethod="reflect"><stop offset="0" stop-color="#6dc7ff"/><stop offset="1" stop-color="#e6abff"/></linearGradient><path fill="url(#zNE1YRA6W1psDEybdfye_d)" d="M40,27v-2h1c1.103,0,2-0.897,2-2v-2c0-1.103-0.897-2-2-2h-4v-2h6v-2h-3v-2h-2v2h-1 c-1.103,0-2,0.897-2,2v2c0,1.103,0.897,2,2,2h4v2h-6v2h3v2H40z"/></svg>